<?xml version="1.0" encoding="UTF-8" standalone="no"?>
<!DOCTYPE svg PUBLIC "-//W3C//DTD SVG 1.1//EN" "http://www.w3.org/Graphics/SVG/1.1/DTD/svg11.dtd">
<svg xmlns="http://www.w3.org/2000/svg" version="1.1" viewBox="0 0 1600 900">
<g stroke-width="2.00" fill="none" stroke-linecap="butt">
<path stroke="#8d8cbb" vector-effect="non-scaling-stroke" d="
  M 228.79 630.57
  Q 223.12 635.66 217.67 641.12
  Q 212.59 646.22 211.15 649.88
  Q 209.01 655.33 210.50 661.25
  Q 212.04 667.36 216.75 671.09
  Q 221.19 674.61 227.03 675.16
  Q 235.39 675.96 242.04 669.54
  Q 248.72 663.09 255.95 656.33
  A 0.96 0.96 42.5 0 1 257.20 656.28
  Q 316.92 703.52 392.99 711.06
  A 0.77 0.77 -88.0 0 1 393.69 711.82
  Q 393.80 724.78 393.56 738.25
  Q 393.38 749.08 400.61 754.81
  Q 406.17 759.22 413.37 758.96
  Q 421.12 758.68 426.37 752.50
  Q 428.71 749.74 429.82 746.48
  Q 430.96 743.14 430.97 739.50
  Q 431.00 725.75 431.00 711.96
  A 0.66 0.66 -2.4 0 1 431.61 711.30
  Q 513.69 704.82 576.80 651.97
  A 0.81 0.80 -42.8 0 1 577.88 652.01
  Q 586.78 660.63 595.85 668.99
  Q 600.01 672.82 602.90 674.04
  Q 607.26 675.87 611.75 675.25
  Q 621.22 673.95 625.58 666.45
  Q 628.84 660.83 628.22 654.47
  Q 627.56 647.76 622.44 642.81
  Q 613.34 634.03 604.15 625.52
  A 0.82 0.81 41.3 0 1 604.07 624.40
  Q 654.44 564.05 660.77 485.74
  A 0.62 0.61 -87.0 0 1 661.39 485.17
  Q 672.14 485.40 682.46 485.16
  Q 689.22 485.00 692.80 483.41
  Q 700.10 480.18 702.72 472.49
  Q 704.18 468.18 703.64 463.90
  Q 703.06 459.27 700.44 455.56
  Q 694.82 447.62 684.50 447.56
  Q 673.00 447.50 661.05 447.50
  A 0.72 0.71 -3.1 0 1 660.34 446.87
  Q 651.74 367.34 599.61 308.49
  A 0.35 0.35 48.0 0 1 599.63 308.00
  Q 610.53 297.52 621.57 287.33
  Q 629.28 280.20 628.25 270.50
  Q 627.00 258.75 615.25 254.50
  Q 609.36 252.37 603.65 254.61
  Q 600.29 255.93 594.74 261.08
  Q 583.53 271.50 572.71 281.93
  A 0.78 0.77 41.9 0 1 571.70 281.98
  Q 510.87 233.35 431.87 226.87
  A 0.95 0.94 3.0 0 1 431.01 225.92
  Q 431.16 214.23 430.85 202.10
  Q 430.74 197.98 429.83 195.53
  Q 428.64 192.29 426.47 189.68
  Q 423.43 186.01 418.56 184.15
  Q 407.83 180.03 399.00 188.75
  Q 395.95 191.76 394.61 196.12
  Q 393.75 198.90 393.75 204.47
  Q 393.75 215.41 393.75 226.55
  A 0.61 0.60 87.4 0 1 393.20 227.16
  Q 314.29 234.63 254.30 284.32
  A 0.87 0.86 47.3 0 1 253.14 284.27
  Q 244.50 275.82 235.46 267.54
  Q 231.24 263.68 228.25 262.54
  Q 223.96 260.91 219.25 261.50
  Q 212.81 262.30 208.63 266.53
  Q 204.75 270.46 203.48 276.38
  Q 202.08 282.93 205.19 288.73
  Q 206.84 291.80 213.03 297.67
  Q 219.86 304.14 226.65 310.66
  A 0.53 0.52 -47.5 0 1 226.67 311.38
  Q 175.31 371.22 168.12 451.67
  A 1.22 1.21 -86.5 0 1 166.87 452.78
  Q 156.01 452.47 145.94 452.99
  Q 140.92 453.25 137.86 454.83
  Q 131.40 458.15 128.92 464.92
  Q 127.22 469.53 127.80 474.23
  Q 128.41 479.28 131.56 483.19
  Q 137.43 490.47 147.50 490.46
  Q 157.72 490.45 167.95 490.56
  A 0.56 0.54 87.1 0 1 168.49 491.06
  Q 176.56 569.50 228.88 629.08
  A 1.06 1.06 48.5 0 1 228.79 630.57"
/>
<path stroke="#908fbd" vector-effect="non-scaling-stroke" d="
  M 783.44 455.31
  Q 798.07 467.70 817.07 472.54
  Q 822.47 473.91 825.31 474.90
  Q 829.35 476.31 833.37 477.77
  Q 845.82 482.27 854.59 492.15
  Q 857.13 495.01 857.75 497.25
  Q 861.29 510.13 857.32 522.90
  Q 856.46 525.68 854.31 528.56
  Q 846.35 539.26 834.56 542.94
  Q 825.41 545.80 814.79 544.00
  Q 793.91 540.45 783.52 520.21
  Q 781.00 515.30 777.44 512.81
  Q 772.42 509.30 767.74 511.45
  Q 764.25 513.04 761.81 517.16
  Q 759.45 521.17 759.75 525.50
  Q 760.08 530.25 762.59 535.62
  Q 764.41 539.49 767.75 544.66
  Q 781.33 565.64 804.94 572.31
  Q 838.60 581.82 863.88 557.38
  Q 880.90 540.92 883.53 517.25
  Q 884.47 508.76 883.76 500.25
  Q 883.09 492.18 880.13 484.84
  Q 877.36 477.94 872.05 471.49
  Q 865.06 463.00 855.70 457.16
  Q 850.65 454.01 842.32 450.66
  Q 834.59 447.55 828.25 445.75
  Q 815.32 442.08 807.56 438.69
  Q 799.59 435.20 793.89 428.60
  Q 789.78 423.86 789.00 417.25
  Q 788.10 409.71 790.24 402.97
  Q 792.35 396.33 797.53 391.15
  Q 803.30 385.39 811.22 382.88
  Q 814.90 381.72 820.42 381.55
  Q 826.77 381.35 829.75 381.75
  Q 842.18 383.42 851.00 392.25
  Q 855.81 397.05 857.69 399.31
  Q 861.83 404.29 868.00 402.75
  Q 874.36 401.16 876.15 394.54
  Q 877.61 389.09 875.94 384.23
  Q 874.88 381.15 870.96 375.65
  Q 865.52 368.03 858.44 363.06
  Q 853.18 359.38 846.42 356.31
  Q 839.95 353.38 833.32 352.40
  Q 806.24 348.42 786.04 365.16
  Q 778.19 371.68 773.12 380.26
  Q 762.64 398.00 764.91 419.76
  Q 767.18 441.54 783.44 455.31"
/>
<path stroke="#a7a7cb" vector-effect="non-scaling-stroke" d="
  M 1108.31 519.94
  Q 1083.05 442.53 1057.27 365.29
  Q 1057.25 365.24 1056.38 362.15
  Q 1054.91 356.90 1050.37 353.66
  Q 1045.77 350.37 1041.06 352.31
  Q 1037.52 353.77 1035.12 357.06
  Q 1033.00 359.95 1032.55 363.90
  Q 1031.97 369.02 1033.66 374.07
  Q 1065.27 468.55 1096.92 563.01
  Q 1098.77 568.54 1099.27 569.41
  Q 1101.21 572.79 1105.06 573.69
  Q 1112.60 575.44 1116.89 570.70
  Q 1118.93 568.45 1121.51 560.76
  Q 1152.88 467.17 1183.95 373.48
  Q 1187.28 363.45 1181.28 356.05
  Q 1179.10 353.36 1176.51 352.35
  Q 1173.37 351.14 1170.15 352.15
  Q 1167.61 352.95 1165.44 355.20
  Q 1163.36 357.35 1162.25 360.00
  Q 1160.55 364.06 1157.94 371.98
  Q 1133.59 446.01 1108.94 519.94
  Q 1108.62 520.88 1108.31 519.94"
/>
<path stroke="#bbbbd7" vector-effect="non-scaling-stroke" d="
  M 1390.25 353.46
  Q 1374.14 357.15 1363.94 368.19
  Q 1352.99 380.03 1346.73 395.79
  Q 1343.29 404.46 1341.69 415.08
  Q 1339.97 426.44 1339.98 438.00
  Q 1340.00 495.28 1340.00 552.55
  Q 1340.00 557.92 1340.44 560.43
  Q 1341.19 564.69 1343.06 567.94
  Q 1346.76 574.36 1354.75 573.00
  Q 1362.49 571.68 1364.16 563.23
  Q 1364.79 559.98 1364.75 553.75
  Q 1364.45 511.48 1364.97 435.69
  Q 1365.00 431.38 1365.45 427.33
  Q 1366.09 421.67 1366.50 419.00
  Q 1369.31 400.75 1382.06 389.81
  Q 1386.59 385.93 1395.00 383.21"
/>
<path stroke="#c4c3dc" vector-effect="non-scaling-stroke" d="
  M 1395.00 383.21
  Q 1401.20 381.33 1406.00 381.50
  Q 1423.88 382.13 1434.62 396.86
  Q 1440.83 405.38 1444.25 418.50
  Q 1446.75 428.09 1446.75 441.50
  Q 1446.75 499.88 1446.75 558.25
  Q 1446.75 565.86 1451.35 570.16
  Q 1453.90 572.56 1457.34 573.06
  Q 1461.05 573.60 1464.27 571.95
  Q 1467.77 570.15 1469.71 566.11
  Q 1471.50 562.37 1471.50 558.00
  Q 1471.50 498.38 1471.50 438.75
  Q 1471.50 417.73 1465.44 399.32
  Q 1462.86 391.49 1459.25 385.03
  Q 1455.42 378.20 1450.40 372.12
  Q 1443.94 364.31 1435.06 359.45
  Q 1413.91 347.89 1390.25 353.46"
/>
<path stroke="#807fb4" vector-effect="non-scaling-stroke" d="
  M 1395.00 383.21
  Q 1394.48 380.72 1393.13 382.56
  A 0.22 0.18 -48.9 0 1 1392.82 382.61
  Q 1392.74 382.51 1392.71 382.39
  A 0.61 0.40 86.0 0 0 1392.36 381.93
  Q 1389.07 381.22 1389.65 377.74
  A 1.37 1.34 34.5 0 0 1389.47 376.82
  Q 1388.08 374.53 1388.59 371.77
  Q 1388.88 370.16 1388.72 368.16
  Q 1388.62 366.88 1389.75 367.47
  Q 1391.64 368.43 1391.70 366.81
  A 1.44 0.95 34.8 0 0 1391.35 365.94
  Q 1390.10 364.50 1389.81 362.72
  Q 1389.63 361.58 1390.61 359.50
  Q 1391.68 357.21 1391.86 354.22
  A 0.42 0.41 -11.9 0 1 1392.10 353.86
  Q 1393.04 353.41 1391.75 353.49
  Q 1391.00 353.53 1390.25 353.46"
/>
<path stroke="#9a99c3" vector-effect="non-scaling-stroke" d="
  M 932.31 541.51
  L 932.25 477.18
  A 0.68 0.68 -89.9 0 1 932.93 476.50
  Q 957.36 476.50 981.73 476.50
  Q 986.14 476.50 988.51 475.20
  Q 992.50 473.01 994.25 468.50
  Q 998.09 458.60 991.49 450.24
  Q 988.77 446.80 986.00 446.75
  Q 960.13 446.32 933.17 446.51
  A 0.91 0.89 0.3 0 1 932.26 445.61
  L 932.49 383.00
  A 0.52 0.51 -0.6 0 1 933.00 382.49
  Q 970.37 382.06 1007.75 382.30
  Q 1013.34 382.34 1016.44 377.69
  Q 1024.41 365.74 1015.02 355.22
  Q 1012.59 352.50 1008.50 352.50
  Q 964.38 352.50 920.25 352.50
  Q 914.75 352.50 911.90 355.72
  Q 910.36 357.45 908.82 361.36
  Q 907.50 364.73 907.50 367.75
  Q 907.50 462.87 907.50 558.00
  Q 907.50 567.23 915.01 571.04
  Q 917.39 572.25 921.23 572.25
  Q 960.60 572.25 999.97 572.25
  Q 1008.82 572.25 1010.01 571.98
  Q 1015.46 570.72 1018.25 565.00
  Q 1023.13 555.00 1016.01 546.49
  Q 1013.33 543.30 1009.57 542.61
  Q 1008.95 542.50 1002.41 542.50
  Q 968.62 542.50 933.30 542.50
  A 0.99 0.99 0.0 0 1 932.31 541.51"
/>
<path stroke="#b3b2d2" vector-effect="non-scaling-stroke" d="
  M 1231.57 476.56
  Q 1257.28 476.45 1283.00 476.54
  Q 1285.97 476.55 1288.69 474.19
  Q 1292.12 471.20 1293.34 467.41
  Q 1294.45 463.94 1294.13 459.53
  Q 1293.77 454.50 1290.55 450.55
  Q 1288.80 448.40 1286.59 447.44
  Q 1284.23 446.42 1281.50 446.43
  Q 1256.50 446.50 1231.52 446.50
  A 0.52 0.52 0.0 0 1 1231.00 445.98
  L 1231.06 383.06
  A 0.50 0.49 -90.0 0 1 1231.55 382.56
  Q 1267.16 382.04 1302.78 382.23
  Q 1307.98 382.26 1308.71 382.13
  Q 1311.93 381.58 1314.06 379.06
  Q 1323.29 368.18 1314.83 356.43
  Q 1312.46 353.15 1308.86 352.53
  Q 1308.67 352.50 1302.13 352.50
  Q 1262.97 352.50 1223.81 352.50
  Q 1216.33 352.50 1215.71 352.63
  Q 1211.28 353.56 1208.99 358.21
  Q 1206.78 362.67 1206.31 367.50
  Q 1206.25 368.07 1206.25 377.01
  Q 1206.26 467.51 1206.47 558.00
  Q 1206.49 567.56 1214.62 571.59
  Q 1215.95 572.25 1217.43 572.25
  Q 1262.75 572.25 1306.75 572.28
  Q 1310.16 572.28 1312.94 569.94
  Q 1318.12 565.56 1318.69 558.99
  Q 1319.39 551.01 1313.78 545.47
  Q 1310.77 542.49 1306.50 542.49
  Q 1269.50 542.50 1231.85 542.50
  A 0.85 0.85 90.0 0 1 1231.00 541.65
  L 1231.06 477.06
  A 0.51 0.50 -0.0 0 1 1231.57 476.56"
/>
<path stroke="#8d8cbb" vector-effect="non-scaling-stroke" d="
  M 479.94 256.06
  Q 521.84 268.75 556.72 296.12
  A 0.82 0.81 -47.6 0 0 557.78 296.07
  L 564.49 289.63
  A 0.41 0.41 -48.0 0 0 564.46 289.01
  Q 505.94 242.53 431.55 236.85
  A 0.47 0.45 1.7 0 0 431.04 237.31
  L 431.15 246.56
  A 0.58 0.55 1.8 0 0 431.69 247.10
  Q 457.67 249.32 479.94 256.06"
/>
<path stroke="#8d8cbb" vector-effect="non-scaling-stroke" d="
  M 264.79 295.24
  Q 266.46 296.97 268.35 298.45
  A 0.64 0.63 43.7 0 0 269.13 298.44
  Q 323.33 254.67 393.25 247.47
  A 0.56 0.55 -3.8 0 0 393.76 246.90
  L 393.47 237.66
  A 0.53 0.51 -3.6 0 0 392.89 237.16
  Q 318.47 244.60 261.70 291.24
  A 0.60 0.57 -35.4 0 0 261.55 291.99
  Q 262.11 292.89 262.90 293.57
  Q 264.60 295.03 264.79 295.24"
/>
<path stroke="#8d8cbb" vector-effect="non-scaling-stroke" d="
  M 273.19 483.56
  Q 295.77 485.54 313.56 501.19
  Q 320.41 507.21 329.64 506.55
  Q 333.13 506.30 337.05 504.37
  Q 340.13 502.86 343.94 500.69
  Q 355.73 493.96 369.17 490.80
  Q 380.43 488.16 388.98 489.31
  Q 402.27 491.10 412.81 500.44
  Q 414.16 501.63 420.69 508.56
  Q 425.08 513.23 432.74 512.43
  Q 438.12 511.88 442.19 509.94
  Q 457.34 502.70 473.00 500.52
  Q 496.31 497.29 511.19 514.81
  Q 514.15 518.30 517.81 518.33
  Q 519.94 518.35 524.15 515.88
  Q 549.07 501.25 577.75 504.00
  Q 583.87 504.59 588.82 508.98
  A 1.46 0.87 55.0 0 0 589.69 509.37
  L 597.44 509.26
  A 0.67 0.58 -85.9 0 0 598.01 508.69
  Q 603.40 470.94 597.75 436.50
  Q 593.63 411.36 584.00 390.00
  Q 566.71 351.63 533.07 326.13
  Q 525.27 320.21 516.42 315.06
  Q 485.57 297.09 450.25 291.50
  Q 386.14 281.35 327.56 309.06
  Q 291.45 326.15 266.25 358.51
  Q 260.06 366.46 254.98 375.03
  Q 235.96 407.15 231.41 444.74
  Q 228.55 468.32 230.60 493.19
  A 0.73 0.73 73.8 0 0 231.67 493.78
  Q 242.22 488.22 254.27 485.33
  Q 264.75 482.82 273.19 483.56"
/>
<path stroke="#8d8cbb" vector-effect="non-scaling-stroke" d="
  M 584.92 322.23
  A 0.42 0.39 48.1 0 0 584.91 322.80
  Q 631.51 375.99 639.52 446.94
  A 0.60 0.57 86.2 0 0 640.10 447.47
  L 649.49 447.30
  A 0.49 0.47 86.7 0 0 649.95 446.76
  Q 642.28 372.13 592.41 315.73
  A 0.45 0.43 47.7 0 0 591.78 315.68
  L 584.92 322.23"
/>
<path stroke="#8d8cbb" vector-effect="non-scaling-stroke" d="
  M 238.57 322.20
  L 234.66 318.55
  A 0.55 0.49 -48.5 0 0 233.92 318.64
  Q 185.52 375.05 178.31 451.46
  A 1.08 1.02 -86.9 0 0 179.30 452.63
  L 188.09 452.72
  A 0.74 0.71 -87.0 0 0 188.81 452.04
  Q 195.14 381.69 239.87 327.63
  Q 239.91 327.57 241.14 326.38
  Q 242.51 325.07 240.64 323.94
  Q 240.06 323.58 238.57 322.20"
/>
<path stroke="#8d8cbb" vector-effect="non-scaling-stroke" d="
  M 596.26 617.59
  A 0.20 0.19 -47.0 0 0 596.54 617.57
  Q 644.36 560.63 650.46 485.99
  A 0.51 0.51 5.8 0 0 650.01 485.44
  Q 645.25 484.93 640.49 485.44
  A 0.61 0.60 88.9 0 0 639.96 486.00
  Q 633.86 555.97 589.01 610.18
  A 0.55 0.54 -48.5 0 0 589.05 610.93
  L 596.26 617.59"
/>
<path stroke="#8d8cbb" vector-effect="non-scaling-stroke" d="
  M 243.78 615.02
  Q 197.27 561.16 189.31 491.25
  A 0.64 0.63 89.9 0 0 188.76 490.69
  Q 184.00 490.18 179.24 490.69
  A 0.51 0.50 83.7 0 0 178.80 491.25
  Q 186.71 566.29 236.55 622.43
  A 0.45 0.44 -42.7 0 0 237.18 622.45
  L 243.72 616.20
  A 0.86 0.85 -42.5 0 0 243.78 615.02"
/>
<path stroke="#8d8cbb" vector-effect="non-scaling-stroke" d="
  M 287.69 521.81
  Q 293.70 522.84 297.50 528.68
  Q 299.36 531.54 301.10 534.48
  Q 303.16 537.95 305.39 539.69
  Q 311.63 544.56 319.77 545.61
  Q 326.99 546.54 334.75 545.00
  Q 349.92 541.99 362.78 534.42
  Q 372.55 528.68 373.62 528.19
  Q 379.83 525.33 385.56 524.31
  Q 400.79 521.61 408.66 535.03
  Q 411.68 540.18 417.06 542.19
  Q 431.28 547.50 445.83 542.37
  Q 446.91 541.98 451.06 539.56
  Q 460.42 534.10 472.79 530.82
  Q 479.78 528.96 482.13 528.84
  Q 487.43 528.57 491.63 531.70
  Q 494.19 533.61 496.48 537.54
  Q 498.56 541.10 499.75 544.50
  Q 502.53 552.41 509.28 554.26
  Q 514.70 555.74 521.38 552.60
  Q 527.13 549.90 531.67 545.17
  Q 543.17 533.21 559.77 531.74
  Q 568.04 531.01 576.24 532.28
  Q 579.85 532.84 583.43 532.15
  Q 585.49 531.76 586.83 530.41
  Q 588.12 529.12 588.17 527.11
  Q 588.26 523.00 583.94 521.56
  Q 573.59 518.12 561.78 519.74
  Q 539.61 522.79 520.32 534.08
  Q 517.70 535.62 514.74 536.17
  A 0.91 0.90 63.4 0 1 513.91 535.89
  Q 512.52 534.35 509.94 530.81
  Q 505.20 524.33 498.11 520.84
  Q 492.11 517.90 483.49 517.33
  Q 473.30 516.66 463.22 519.14
  Q 449.73 522.45 437.22 528.50
  Q 433.95 530.09 430.56 529.44
  Q 420.86 527.57 414.46 520.14
  Q 411.84 517.10 411.81 517.06
  Q 399.85 504.65 382.00 505.97
  Q 373.04 506.63 364.00 509.75
  Q 352.00 513.89 341.76 519.32
  Q 334.79 523.01 330.50 523.75
  Q 323.72 524.92 317.41 519.84
  Q 313.18 516.43 308.81 513.20
  Q 293.32 501.77 274.74 500.32
  Q 264.81 499.55 254.96 502.21
  Q 234.84 507.65 220.62 523.87
  Q 215.77 529.40 214.56 535.56
  Q 212.97 543.67 218.49 547.11
  Q 222.39 549.54 228.87 548.91
  Q 237.21 548.11 244.12 543.08
  Q 248.04 540.23 248.11 540.19
  Q 254.26 536.04 260.35 531.82
  Q 267.81 526.65 276.26 523.47
  Q 279.35 522.31 281.84 521.91
  Q 285.17 521.38 287.69 521.81"
/>
<path stroke="#8d8cbb" vector-effect="non-scaling-stroke" d="
  M 364.64 577.89
  Q 367.15 579.36 369.75 579.27
  Q 376.35 579.03 381.65 575.13
  Q 391.09 568.16 401.60 562.94
  Q 411.97 557.79 417.76 566.17
  Q 417.91 566.38 419.54 569.44
  Q 420.57 571.36 421.81 572.44
  Q 427.81 577.62 436.50 577.25
  Q 445.76 576.86 455.36 572.36
  Q 455.41 572.34 464.01 567.35
  Q 470.06 563.84 476.00 562.75
  Q 485.77 560.96 491.06 569.00
  Q 492.87 571.76 493.31 572.20
  Q 494.74 573.67 496.56 574.44
  Q 504.23 577.65 512.12 575.97
  Q 514.90 575.37 520.36 572.46
  Q 530.23 567.18 539.00 566.00
  Q 546.62 564.97 550.06 571.69
  Q 551.25 574.01 552.01 575.81
  Q 553.28 578.84 554.09 579.82
  Q 556.65 582.93 560.58 583.10
  Q 563.59 583.23 567.14 581.34
  Q 570.75 579.41 573.81 576.31
  Q 579.43 570.62 587.00 568.45
  Q 590.88 567.34 596.08 567.46
  Q 600.69 567.56 605.26 568.25
  Q 607.63 568.61 609.65 567.30
  Q 611.89 565.85 611.14 563.70
  Q 610.61 562.17 608.88 561.26
  Q 607.13 560.35 604.75 560.00
  Q 599.28 559.20 596.26 559.43
  Q 586.75 560.19 577.87 563.72
  Q 570.10 566.81 562.85 570.60
  A 1.17 1.17 -30.3 0 1 561.32 570.20
  Q 551.90 555.69 534.24 558.17
  Q 522.42 559.84 511.69 564.95
  Q 509.03 566.22 507.47 566.23
  Q 505.30 566.25 503.00 565.25
  Q 498.22 563.18 495.10 559.75
  Q 492.41 556.80 492.38 556.77
  Q 488.39 553.11 483.33 551.52
  Q 479.17 550.21 473.57 550.54
  Q 468.33 550.86 463.81 552.31
  Q 454.52 555.31 444.00 560.52
  Q 440.28 562.36 438.10 562.50
  Q 434.48 562.73 431.81 560.69
  Q 422.39 553.50 417.10 551.00
  Q 397.53 541.77 378.73 552.26
  Q 371.25 556.43 365.64 562.89
  Q 361.29 567.90 361.91 573.67
  Q 362.21 576.47 364.64 577.89"
/>
<path stroke="#8d8cbb" vector-effect="non-scaling-stroke" d="
  M 566.45 641.03
  Q 564.55 639.31 562.63 637.59
  A 0.60 0.59 46.2 0 0 561.86 637.57
  Q 505.31 684.66 431.54 690.75
  A 0.58 0.58 -2.1 0 0 431.00 691.33
  L 431.00 700.54
  A 0.53 0.53 -2.5 0 0 431.58 701.07
  Q 510.03 694.70 569.40 644.88
  A 0.54 0.54 -40.6 0 0 569.46 644.12
  Q 567.89 642.34 566.45 641.03"
/>
<path stroke="#8d8cbb" vector-effect="non-scaling-stroke" d="
  M 264.45 648.92
  Q 321.24 694.10 392.84 700.71
  A 0.75 0.69 -87.1 0 0 393.60 699.97
  L 393.70 691.49
  A 1.17 1.06 -87.3 0 0 392.74 690.32
  Q 325.81 683.59 272.09 641.79
  A 0.88 0.83 -47.9 0 0 270.97 641.88
  L 264.43 648.19
  A 0.50 0.47 -48.2 0 0 264.45 648.92"
/>
<path stroke="#8989b1" vector-effect="non-scaling-stroke" d="
  M 437.83 387.45
  Q 438.19 376.72 439.50 361.75
  Q 440.21 353.62 435.22 349.14
  Q 431.20 345.52 423.98 344.95
  Q 413.84 344.16 403.94 349.94
  Q 393.66 355.93 392.25 366.75
  Q 390.91 376.99 391.18 396.43
  A 0.90 0.86 74.1 0 1 390.77 397.20
  L 344.56 425.27
  A 2.64 2.63 76.3 0 0 343.30 427.35
  L 341.66 453.29
  A 1.55 1.51 -14.5 0 1 340.93 454.49
  L 307.85 475.04
  A 2.42 2.41 69.4 0 0 306.75 477.48
  Q 308.08 485.67 314.38 484.64
  Q 316.99 484.22 322.20 480.92
  Q 344.92 466.54 366.69 450.74
  Q 385.37 437.17 404.94 424.95
  Q 426.94 411.21 450.86 401.28
  Q 456.87 398.78 459.53 398.75
  Q 464.68 398.70 468.19 403.31
  Q 471.96 408.28 482.73 423.54
  Q 485.23 427.09 485.64 429.56
  Q 486.19 432.93 485.00 436.50
  Q 471.75 476.30 464.66 497.03
  A 0.40 0.35 -80.8 0 0 464.99 497.56
  L 469.88 497.26
  A 2.71 2.23 -73.9 0 0 471.83 495.92
  Q 474.45 491.34 477.50 486.25
  Q 490.19 465.04 496.59 441.16
  Q 497.68 437.11 497.81 431.56
  Q 497.90 427.81 496.72 424.65
  Q 495.94 422.54 493.08 418.83
  Q 484.12 407.21 475.24 395.52
  Q 471.52 390.64 466.00 391.25
  Q 460.13 391.90 452.70 395.76
  A 0.96 0.91 -43.2 0 1 451.81 395.76
  L 438.25 388.19
  A 0.81 0.81 15.5 0 1 437.83 387.45"
/>
<path stroke="#8989b1" vector-effect="non-scaling-stroke" d="
  M 461.60 406.99
  Q 453.67 426.17 449.36 446.42
  Q 448.74 449.37 445.58 466.07
  Q 443.56 476.76 441.83 487.50
  A 0.54 0.44 -84.0 0 0 442.24 488.12
  L 445.57 488.17
  A 0.84 0.62 -78.4 0 0 446.22 487.59
  Q 454.06 463.61 459.25 441.50
  Q 463.02 425.41 464.44 407.57
  Q 464.51 406.62 464.36 405.95
  Q 463.81 403.57 462.42 405.45
  Q 462.01 406.00 461.60 406.99"
/>
<path stroke="#8989b1" vector-effect="non-scaling-stroke" d="
  M 425.72 361.17
  Q 427.94 361.96 429.00 361.75
  Q 433.03 360.95 431.24 357.76
  A 2.83 2.83 -9.4 0 0 429.28 356.36
  Q 416.81 354.12 406.31 359.07
  Q 404.14 360.09 402.62 361.85
  Q 401.58 363.05 401.47 364.41
  Q 401.29 366.68 403.49 366.44
  Q 404.38 366.35 405.72 365.55
  Q 413.50 360.88 422.54 360.58
  Q 423.94 360.53 425.72 361.17"
/>
<path stroke="#8989b1" vector-effect="non-scaling-stroke" d="
  M 423.94 381.81
  Q 427.31 382.59 429.82 384.61
  Q 430.46 385.12 430.50 384.30
  L 431.33 367.90
  Q 431.36 367.34 430.86 367.60
  Q 418.64 373.93 402.10 374.02
  A 1.33 1.30 0.4 0 0 400.77 375.30
  L 400.50 391.70
  Q 400.49 392.55 401.16 392.01
  Q 407.80 386.68 415.90 383.27
  Q 421.00 381.13 423.94 381.81"
/>
<path stroke="#8989b1" vector-effect="non-scaling-stroke" d="
  M 443.25 399.66
  L 424.44 390.56
  Q 422.34 389.55 422.56 391.56
  L 424.36 408.07
  A 0.40 0.38 -15.3 0 0 424.91 408.37
  L 443.24 400.53
  Q 444.20 400.12 443.25 399.66"
/>
<path stroke="#8989b1" vector-effect="non-scaling-stroke" d="
  M 415.32 392.19
  Q 413.07 391.09 410.86 392.29
  Q 406.63 394.61 403.17 397.97
  A 0.78 0.76 58.9 0 0 402.98 398.79
  L 409.14 415.98
  A 0.54 0.48 69.4 0 0 409.79 416.32
  L 415.70 414.01
  A 1.50 1.29 80.2 0 0 416.52 412.64
  L 416.19 393.58
  A 1.60 1.56 -77.8 0 0 415.32 392.19"
/>
<path stroke="#8989b1" vector-effect="non-scaling-stroke" d="
  M 356.47 446.11
  L 403.87 420.11
  A 1.17 1.13 -25.0 0 0 404.41 418.70
  L 397.99 401.60
  A 0.46 0.46 -27.0 0 0 397.30 401.38
  L 356.22 429.28
  A 0.95 0.94 73.0 0 0 355.81 430.06
  L 356.01 445.85
  A 0.31 0.30 -14.7 0 0 356.47 446.11"
/>
<path stroke="#8989b1" vector-effect="non-scaling-stroke" d="
  M 397.2587 413.3365
  A 8.79 4.00 -31.2 0 0 387.6679 414.4685
  A 8.79 4.00 -31.2 0 0 382.2213 422.4435
  A 8.79 4.00 -31.2 0 0 391.8121 421.3115
  A 8.79 4.00 -31.2 0 0 397.2587 413.3365"
/>
<path stroke="#8989b1" vector-effect="non-scaling-stroke" d="
  M 377.2244 424.6407
  A 8.86 3.99 -31.5 0 0 367.5852 425.8680
  A 8.86 3.99 -31.5 0 0 362.1156 433.8993
  A 8.86 3.99 -31.5 0 0 371.7548 432.6720
  A 8.86 3.99 -31.5 0 0 377.2244 424.6407"
/>
</g>
<path fill="#ffffff" d="
  M 0.00 0.00
  L 1024.13 0.00
  L 1600.00 0.00
  L 1600.00 900.00
  L 1087.88 900.00
  L 0.00 900.00
  L 0.00 0.00
  Z
  M 228.79 630.57
  Q 223.12 635.66 217.67 641.12
  Q 212.59 646.22 211.15 649.88
  Q 209.01 655.33 210.50 661.25
  Q 212.04 667.36 216.75 671.09
  Q 221.19 674.61 227.03 675.16
  Q 235.39 675.96 242.04 669.54
  Q 248.72 663.09 255.95 656.33
  A 0.96 0.96 42.5 0 1 257.20 656.28
  Q 316.92 703.52 392.99 711.06
  A 0.77 0.77 -88.0 0 1 393.69 711.82
  Q 393.80 724.78 393.56 738.25
  Q 393.38 749.08 400.61 754.81
  Q 406.17 759.22 413.37 758.96
  Q 421.12 758.68 426.37 752.50
  Q 428.71 749.74 429.82 746.48
  Q 430.96 743.14 430.97 739.50
  Q 431.00 725.75 431.00 711.96
  A 0.66 0.66 -2.4 0 1 431.61 711.30
  Q 513.69 704.82 576.80 651.97
  A 0.81 0.80 -42.8 0 1 577.88 652.01
  Q 586.78 660.63 595.85 668.99
  Q 600.01 672.82 602.90 674.04
  Q 607.26 675.87 611.75 675.25
  Q 621.22 673.95 625.58 666.45
  Q 628.84 660.83 628.22 654.47
  Q 627.56 647.76 622.44 642.81
  Q 613.34 634.03 604.15 625.52
  A 0.82 0.81 41.3 0 1 604.07 624.40
  Q 654.44 564.05 660.77 485.74
  A 0.62 0.61 -87.0 0 1 661.39 485.17
  Q 672.14 485.40 682.46 485.16
  Q 689.22 485.00 692.80 483.41
  Q 700.10 480.18 702.72 472.49
  Q 704.18 468.18 703.64 463.90
  Q 703.06 459.27 700.44 455.56
  Q 694.82 447.62 684.50 447.56
  Q 673.00 447.50 661.05 447.50
  A 0.72 0.71 -3.1 0 1 660.34 446.87
  Q 651.74 367.34 599.61 308.49
  A 0.35 0.35 48.0 0 1 599.63 308.00
  Q 610.53 297.52 621.57 287.33
  Q 629.28 280.20 628.25 270.50
  Q 627.00 258.75 615.25 254.50
  Q 609.36 252.37 603.65 254.61
  Q 600.29 255.93 594.74 261.08
  Q 583.53 271.50 572.71 281.93
  A 0.78 0.77 41.9 0 1 571.70 281.98
  Q 510.87 233.35 431.87 226.87
  A 0.95 0.94 3.0 0 1 431.01 225.92
  Q 431.16 214.23 430.85 202.10
  Q 430.74 197.98 429.83 195.53
  Q 428.64 192.29 426.47 189.68
  Q 423.43 186.01 418.56 184.15
  Q 407.83 180.03 399.00 188.75
  Q 395.95 191.76 394.61 196.12
  Q 393.75 198.90 393.75 204.47
  Q 393.75 215.41 393.75 226.55
  A 0.61 0.60 87.4 0 1 393.20 227.16
  Q 314.29 234.63 254.30 284.32
  A 0.87 0.86 47.3 0 1 253.14 284.27
  Q 244.50 275.82 235.46 267.54
  Q 231.24 263.68 228.25 262.54
  Q 223.96 260.91 219.25 261.50
  Q 212.81 262.30 208.63 266.53
  Q 204.75 270.46 203.48 276.38
  Q 202.08 282.93 205.19 288.73
  Q 206.84 291.80 213.03 297.67
  Q 219.86 304.14 226.65 310.66
  A 0.53 0.52 -47.5 0 1 226.67 311.38
  Q 175.31 371.22 168.12 451.67
  A 1.22 1.21 -86.5 0 1 166.87 452.78
  Q 156.01 452.47 145.94 452.99
  Q 140.92 453.25 137.86 454.83
  Q 131.40 458.15 128.92 464.92
  Q 127.22 469.53 127.80 474.23
  Q 128.41 479.28 131.56 483.19
  Q 137.43 490.47 147.50 490.46
  Q 157.72 490.45 167.95 490.56
  A 0.56 0.54 87.1 0 1 168.49 491.06
  Q 176.56 569.50 228.88 629.08
  A 1.06 1.06 48.5 0 1 228.79 630.57
  Z
  M 783.44 455.31
  Q 798.07 467.70 817.07 472.54
  Q 822.47 473.91 825.31 474.90
  Q 829.35 476.31 833.37 477.77
  Q 845.82 482.27 854.59 492.15
  Q 857.13 495.01 857.75 497.25
  Q 861.29 510.13 857.32 522.90
  Q 856.46 525.68 854.31 528.56
  Q 846.35 539.26 834.56 542.94
  Q 825.41 545.80 814.79 544.00
  Q 793.91 540.45 783.52 520.21
  Q 781.00 515.30 777.44 512.81
  Q 772.42 509.30 767.74 511.45
  Q 764.25 513.04 761.81 517.16
  Q 759.45 521.17 759.75 525.50
  Q 760.08 530.25 762.59 535.62
  Q 764.41 539.49 767.75 544.66
  Q 781.33 565.64 804.94 572.31
  Q 838.60 581.82 863.88 557.38
  Q 880.90 540.92 883.53 517.25
  Q 884.47 508.76 883.76 500.25
  Q 883.09 492.18 880.13 484.84
  Q 877.36 477.94 872.05 471.49
  Q 865.06 463.00 855.70 457.16
  Q 850.65 454.01 842.32 450.66
  Q 834.59 447.55 828.25 445.75
  Q 815.32 442.08 807.56 438.69
  Q 799.59 435.20 793.89 428.60
  Q 789.78 423.86 789.00 417.25
  Q 788.10 409.71 790.24 402.97
  Q 792.35 396.33 797.53 391.15
  Q 803.30 385.39 811.22 382.88
  Q 814.90 381.72 820.42 381.55
  Q 826.77 381.35 829.75 381.75
  Q 842.18 383.42 851.00 392.25
  Q 855.81 397.05 857.69 399.31
  Q 861.83 404.29 868.00 402.75
  Q 874.36 401.16 876.15 394.54
  Q 877.61 389.09 875.94 384.23
  Q 874.88 381.15 870.96 375.65
  Q 865.52 368.03 858.44 363.06
  Q 853.18 359.38 846.42 356.31
  Q 839.95 353.38 833.32 352.40
  Q 806.24 348.42 786.04 365.16
  Q 778.19 371.68 773.12 380.26
  Q 762.64 398.00 764.91 419.76
  Q 767.18 441.54 783.44 455.31
  Z
  M 1108.31 519.94
  Q 1083.05 442.53 1057.27 365.29
  Q 1057.25 365.24 1056.38 362.15
  Q 1054.91 356.90 1050.37 353.66
  Q 1045.77 350.37 1041.06 352.31
  Q 1037.52 353.77 1035.12 357.06
  Q 1033.00 359.95 1032.55 363.90
  Q 1031.97 369.02 1033.66 374.07
  Q 1065.27 468.55 1096.92 563.01
  Q 1098.77 568.54 1099.27 569.41
  Q 1101.21 572.79 1105.06 573.69
  Q 1112.60 575.44 1116.89 570.70
  Q 1118.93 568.45 1121.51 560.76
  Q 1152.88 467.17 1183.95 373.48
  Q 1187.28 363.45 1181.28 356.05
  Q 1179.10 353.36 1176.51 352.35
  Q 1173.37 351.14 1170.15 352.15
  Q 1167.61 352.95 1165.44 355.20
  Q 1163.36 357.35 1162.25 360.00
  Q 1160.55 364.06 1157.94 371.98
  Q 1133.59 446.01 1108.94 519.94
  Q 1108.62 520.88 1108.31 519.94
  Z
  M 1390.25 353.46
  Q 1374.14 357.15 1363.94 368.19
  Q 1352.99 380.03 1346.73 395.79
  Q 1343.29 404.46 1341.69 415.08
  Q 1339.97 426.44 1339.98 438.00
  Q 1340.00 495.28 1340.00 552.55
  Q 1340.00 557.92 1340.44 560.43
  Q 1341.19 564.69 1343.06 567.94
  Q 1346.76 574.36 1354.75 573.00
  Q 1362.49 571.68 1364.16 563.23
  Q 1364.79 559.98 1364.75 553.75
  Q 1364.45 511.48 1364.97 435.69
  Q 1365.00 431.38 1365.45 427.33
  Q 1366.09 421.67 1366.50 419.00
  Q 1369.31 400.75 1382.06 389.81
  Q 1386.59 385.93 1395.00 383.21
  Q 1401.20 381.33 1406.00 381.50
  Q 1423.88 382.13 1434.62 396.86
  Q 1440.83 405.38 1444.25 418.50
  Q 1446.75 428.09 1446.75 441.50
  Q 1446.75 499.88 1446.75 558.25
  Q 1446.75 565.86 1451.35 570.16
  Q 1453.90 572.56 1457.34 573.06
  Q 1461.05 573.60 1464.27 571.95
  Q 1467.77 570.15 1469.71 566.11
  Q 1471.50 562.37 1471.50 558.00
  Q 1471.50 498.38 1471.50 438.75
  Q 1471.50 417.73 1465.44 399.32
  Q 1462.86 391.49 1459.25 385.03
  Q 1455.42 378.20 1450.40 372.12
  Q 1443.94 364.31 1435.06 359.45
  Q 1413.91 347.89 1390.25 353.46
  Z
  M 932.31 541.51
  L 932.25 477.18
  A 0.68 0.68 -89.9 0 1 932.93 476.50
  Q 957.36 476.50 981.73 476.50
  Q 986.14 476.50 988.51 475.20
  Q 992.50 473.01 994.25 468.50
  Q 998.09 458.60 991.49 450.24
  Q 988.77 446.80 986.00 446.75
  Q 960.13 446.32 933.17 446.51
  A 0.91 0.89 0.3 0 1 932.26 445.61
  L 932.49 383.00
  A 0.52 0.51 -0.6 0 1 933.00 382.49
  Q 970.37 382.06 1007.75 382.30
  Q 1013.34 382.34 1016.44 377.69
  Q 1024.41 365.74 1015.02 355.22
  Q 1012.59 352.50 1008.50 352.50
  Q 964.38 352.50 920.25 352.50
  Q 914.75 352.50 911.90 355.72
  Q 910.36 357.45 908.82 361.36
  Q 907.50 364.73 907.50 367.75
  Q 907.50 462.87 907.50 558.00
  Q 907.50 567.23 915.01 571.04
  Q 917.39 572.25 921.23 572.25
  Q 960.60 572.25 999.97 572.25
  Q 1008.82 572.25 1010.01 571.98
  Q 1015.46 570.72 1018.25 565.00
  Q 1023.13 555.00 1016.01 546.49
  Q 1013.33 543.30 1009.57 542.61
  Q 1008.95 542.50 1002.41 542.50
  Q 968.62 542.50 933.30 542.50
  A 0.99 0.99 0.0 0 1 932.31 541.51
  Z
  M 1231.57 476.56
  Q 1257.28 476.45 1283.00 476.54
  Q 1285.97 476.55 1288.69 474.19
  Q 1292.12 471.20 1293.34 467.41
  Q 1294.45 463.94 1294.13 459.53
  Q 1293.77 454.50 1290.55 450.55
  Q 1288.80 448.40 1286.59 447.44
  Q 1284.23 446.42 1281.50 446.43
  Q 1256.50 446.50 1231.52 446.50
  A 0.52 0.52 0.0 0 1 1231.00 445.98
  L 1231.06 383.06
  A 0.50 0.49 -90.0 0 1 1231.55 382.56
  Q 1267.16 382.04 1302.78 382.23
  Q 1307.98 382.26 1308.71 382.13
  Q 1311.93 381.58 1314.06 379.06
  Q 1323.29 368.18 1314.83 356.43
  Q 1312.46 353.15 1308.86 352.53
  Q 1308.67 352.50 1302.13 352.50
  Q 1262.97 352.50 1223.81 352.50
  Q 1216.33 352.50 1215.71 352.63
  Q 1211.28 353.56 1208.99 358.21
  Q 1206.78 362.67 1206.31 367.50
  Q 1206.25 368.07 1206.25 377.01
  Q 1206.26 467.51 1206.47 558.00
  Q 1206.49 567.56 1214.62 571.59
  Q 1215.95 572.25 1217.43 572.25
  Q 1262.75 572.25 1306.75 572.28
  Q 1310.16 572.28 1312.94 569.94
  Q 1318.12 565.56 1318.69 558.99
  Q 1319.39 551.01 1313.78 545.47
  Q 1310.77 542.49 1306.50 542.49
  Q 1269.50 542.50 1231.85 542.50
  A 0.85 0.85 90.0 0 1 1231.00 541.65
  L 1231.06 477.06
  A 0.51 0.50 -0.0 0 1 1231.57 476.56
  Z"
/>
<path fill="#1a1977" d="
  M 228.79 630.57
  A 1.06 1.06 48.5 0 0 228.88 629.08
  Q 176.56 569.50 168.49 491.06
  A 0.56 0.54 87.1 0 0 167.95 490.56
  Q 157.72 490.45 147.50 490.46
  Q 137.43 490.47 131.56 483.19
  Q 128.41 479.28 127.80 474.23
  Q 127.22 469.53 128.92 464.92
  Q 131.40 458.15 137.86 454.83
  Q 140.92 453.25 145.94 452.99
  Q 156.01 452.47 166.87 452.78
  A 1.22 1.21 -86.5 0 0 168.12 451.67
  Q 175.31 371.22 226.67 311.38
  A 0.53 0.52 -47.5 0 0 226.65 310.66
  Q 219.86 304.14 213.03 297.67
  Q 206.84 291.80 205.19 288.73
  Q 202.08 282.93 203.48 276.38
  Q 204.75 270.46 208.63 266.53
  Q 212.81 262.30 219.25 261.50
  Q 223.96 260.91 228.25 262.54
  Q 231.24 263.68 235.46 267.54
  Q 244.50 275.82 253.14 284.27
  A 0.87 0.86 47.3 0 0 254.30 284.32
  Q 314.29 234.63 393.20 227.16
  A 0.61 0.60 87.4 0 0 393.75 226.55
  Q 393.75 215.41 393.75 204.47
  Q 393.75 198.90 394.61 196.12
  Q 395.95 191.76 399.00 188.75
  Q 407.83 180.03 418.56 184.15
  Q 423.43 186.01 426.47 189.68
  Q 428.64 192.29 429.83 195.53
  Q 430.74 197.98 430.85 202.10
  Q 431.16 214.23 431.01 225.92
  A 0.95 0.94 3.0 0 0 431.87 226.87
  Q 510.87 233.35 571.70 281.98
  A 0.78 0.77 41.9 0 0 572.71 281.93
  Q 583.53 271.50 594.74 261.08
  Q 600.29 255.93 603.65 254.61
  Q 609.36 252.37 615.25 254.50
  Q 627.00 258.75 628.25 270.50
  Q 629.28 280.20 621.57 287.33
  Q 610.53 297.52 599.63 308.00
  A 0.35 0.35 48.0 0 0 599.61 308.49
  Q 651.74 367.34 660.34 446.87
  A 0.72 0.71 -3.1 0 0 661.05 447.50
  Q 673.00 447.50 684.50 447.56
  Q 694.82 447.62 700.44 455.56
  Q 703.06 459.27 703.64 463.90
  Q 704.18 468.18 702.72 472.49
  Q 700.10 480.18 692.80 483.41
  Q 689.22 485.00 682.46 485.16
  Q 672.14 485.40 661.39 485.17
  A 0.62 0.61 -87.0 0 0 660.77 485.74
  Q 654.44 564.05 604.07 624.40
  A 0.82 0.81 41.3 0 0 604.15 625.52
  Q 613.34 634.03 622.44 642.81
  Q 627.56 647.76 628.22 654.47
  Q 628.84 660.83 625.58 666.45
  Q 621.22 673.95 611.75 675.25
  Q 607.26 675.87 602.90 674.04
  Q 600.01 672.82 595.85 668.99
  Q 586.78 660.63 577.88 652.01
  A 0.81 0.80 -42.8 0 0 576.80 651.97
  Q 513.69 704.82 431.61 711.30
  A 0.66 0.66 -2.4 0 0 431.00 711.96
  Q 431.00 725.75 430.97 739.50
  Q 430.96 743.14 429.82 746.48
  Q 428.71 749.74 426.37 752.50
  Q 421.12 758.68 413.37 758.96
  Q 406.17 759.22 400.61 754.81
  Q 393.38 749.08 393.56 738.25
  Q 393.80 724.78 393.69 711.82
  A 0.77 0.77 -88.0 0 0 392.99 711.06
  Q 316.92 703.52 257.20 656.28
  A 0.96 0.96 42.5 0 0 255.95 656.33
  Q 248.72 663.09 242.04 669.54
  Q 235.39 675.96 227.03 675.16
  Q 221.19 674.61 216.75 671.09
  Q 212.04 667.36 210.50 661.25
  Q 209.01 655.33 211.15 649.88
  Q 212.59 646.22 217.67 641.12
  Q 223.12 635.66 228.79 630.57
  Z
  M 479.94 256.06
  Q 521.84 268.75 556.72 296.12
  A 0.82 0.81 -47.6 0 0 557.78 296.07
  L 564.49 289.63
  A 0.41 0.41 -48.0 0 0 564.46 289.01
  Q 505.94 242.53 431.55 236.85
  A 0.47 0.45 1.7 0 0 431.04 237.31
  L 431.15 246.56
  A 0.58 0.55 1.8 0 0 431.69 247.10
  Q 457.67 249.32 479.94 256.06
  Z
  M 264.79 295.24
  Q 266.46 296.97 268.35 298.45
  A 0.64 0.63 43.7 0 0 269.13 298.44
  Q 323.33 254.67 393.25 247.47
  A 0.56 0.55 -3.8 0 0 393.76 246.90
  L 393.47 237.66
  A 0.53 0.51 -3.6 0 0 392.89 237.16
  Q 318.47 244.60 261.70 291.24
  A 0.60 0.57 -35.4 0 0 261.55 291.99
  Q 262.11 292.89 262.90 293.57
  Q 264.60 295.03 264.79 295.24
  Z
  M 273.19 483.56
  Q 295.77 485.54 313.56 501.19
  Q 320.41 507.21 329.64 506.55
  Q 333.13 506.30 337.05 504.37
  Q 340.13 502.86 343.94 500.69
  Q 355.73 493.96 369.17 490.80
  Q 380.43 488.16 388.98 489.31
  Q 402.27 491.10 412.81 500.44
  Q 414.16 501.63 420.69 508.56
  Q 425.08 513.23 432.74 512.43
  Q 438.12 511.88 442.19 509.94
  Q 457.34 502.70 473.00 500.52
  Q 496.31 497.29 511.19 514.81
  Q 514.15 518.30 517.81 518.33
  Q 519.94 518.35 524.15 515.88
  Q 549.07 501.25 577.75 504.00
  Q 583.87 504.59 588.82 508.98
  A 1.46 0.87 55.0 0 0 589.69 509.37
  L 597.44 509.26
  A 0.67 0.58 -85.9 0 0 598.01 508.69
  Q 603.40 470.94 597.75 436.50
  Q 593.63 411.36 584.00 390.00
  Q 566.71 351.63 533.07 326.13
  Q 525.27 320.21 516.42 315.06
  Q 485.57 297.09 450.25 291.50
  Q 386.14 281.35 327.56 309.06
  Q 291.45 326.15 266.25 358.51
  Q 260.06 366.46 254.98 375.03
  Q 235.96 407.15 231.41 444.74
  Q 228.55 468.32 230.60 493.19
  A 0.73 0.73 73.8 0 0 231.67 493.78
  Q 242.22 488.22 254.27 485.33
  Q 264.75 482.82 273.19 483.56
  Z
  M 584.92 322.23
  A 0.42 0.39 48.1 0 0 584.91 322.80
  Q 631.51 375.99 639.52 446.94
  A 0.60 0.57 86.2 0 0 640.10 447.47
  L 649.49 447.30
  A 0.49 0.47 86.7 0 0 649.95 446.76
  Q 642.28 372.13 592.41 315.73
  A 0.45 0.43 47.7 0 0 591.78 315.68
  L 584.92 322.23
  Z
  M 238.57 322.20
  L 234.66 318.55
  A 0.55 0.49 -48.5 0 0 233.92 318.64
  Q 185.52 375.05 178.31 451.46
  A 1.08 1.02 -86.9 0 0 179.30 452.63
  L 188.09 452.72
  A 0.74 0.71 -87.0 0 0 188.81 452.04
  Q 195.14 381.69 239.87 327.63
  Q 239.91 327.57 241.14 326.38
  Q 242.51 325.07 240.64 323.94
  Q 240.06 323.58 238.57 322.20
  Z
  M 596.26 617.59
  A 0.20 0.19 -47.0 0 0 596.54 617.57
  Q 644.36 560.63 650.46 485.99
  A 0.51 0.51 5.8 0 0 650.01 485.44
  Q 645.25 484.93 640.49 485.44
  A 0.61 0.60 88.9 0 0 639.96 486.00
  Q 633.86 555.97 589.01 610.18
  A 0.55 0.54 -48.5 0 0 589.05 610.93
  L 596.26 617.59
  Z
  M 243.78 615.02
  Q 197.27 561.16 189.31 491.25
  A 0.64 0.63 89.9 0 0 188.76 490.69
  Q 184.00 490.18 179.24 490.69
  A 0.51 0.50 83.7 0 0 178.80 491.25
  Q 186.71 566.29 236.55 622.43
  A 0.45 0.44 -42.7 0 0 237.18 622.45
  L 243.72 616.20
  A 0.86 0.85 -42.5 0 0 243.78 615.02
  Z
  M 287.69 521.81
  Q 293.70 522.84 297.50 528.68
  Q 299.36 531.54 301.10 534.48
  Q 303.16 537.95 305.39 539.69
  Q 311.63 544.56 319.77 545.61
  Q 326.99 546.54 334.75 545.00
  Q 349.92 541.99 362.78 534.42
  Q 372.55 528.68 373.62 528.19
  Q 379.83 525.33 385.56 524.31
  Q 400.79 521.61 408.66 535.03
  Q 411.68 540.18 417.06 542.19
  Q 431.28 547.50 445.83 542.37
  Q 446.91 541.98 451.06 539.56
  Q 460.42 534.10 472.79 530.82
  Q 479.78 528.96 482.13 528.84
  Q 487.43 528.57 491.63 531.70
  Q 494.19 533.61 496.48 537.54
  Q 498.56 541.10 499.75 544.50
  Q 502.53 552.41 509.28 554.26
  Q 514.70 555.74 521.38 552.60
  Q 527.13 549.90 531.67 545.17
  Q 543.17 533.21 559.77 531.74
  Q 568.04 531.01 576.24 532.28
  Q 579.85 532.84 583.43 532.15
  Q 585.49 531.76 586.83 530.41
  Q 588.12 529.12 588.17 527.11
  Q 588.26 523.00 583.94 521.56
  Q 573.59 518.12 561.78 519.74
  Q 539.61 522.79 520.32 534.08
  Q 517.70 535.62 514.74 536.17
  A 0.91 0.90 63.4 0 1 513.91 535.89
  Q 512.52 534.35 509.94 530.81
  Q 505.20 524.33 498.11 520.84
  Q 492.11 517.90 483.49 517.33
  Q 473.30 516.66 463.22 519.14
  Q 449.73 522.45 437.22 528.50
  Q 433.95 530.09 430.56 529.44
  Q 420.86 527.57 414.46 520.14
  Q 411.84 517.10 411.81 517.06
  Q 399.85 504.65 382.00 505.97
  Q 373.04 506.63 364.00 509.75
  Q 352.00 513.89 341.76 519.32
  Q 334.79 523.01 330.50 523.75
  Q 323.72 524.92 317.41 519.84
  Q 313.18 516.43 308.81 513.20
  Q 293.32 501.77 274.74 500.32
  Q 264.81 499.55 254.96 502.21
  Q 234.84 507.65 220.62 523.87
  Q 215.77 529.40 214.56 535.56
  Q 212.97 543.67 218.49 547.11
  Q 222.39 549.54 228.87 548.91
  Q 237.21 548.11 244.12 543.08
  Q 248.04 540.23 248.11 540.19
  Q 254.26 536.04 260.35 531.82
  Q 267.81 526.65 276.26 523.47
  Q 279.35 522.31 281.84 521.91
  Q 285.17 521.38 287.69 521.81
  Z
  M 364.64 577.89
  Q 367.15 579.36 369.75 579.27
  Q 376.35 579.03 381.65 575.13
  Q 391.09 568.16 401.60 562.94
  Q 411.97 557.79 417.76 566.17
  Q 417.91 566.38 419.54 569.44
  Q 420.57 571.36 421.81 572.44
  Q 427.81 577.62 436.50 577.25
  Q 445.76 576.86 455.36 572.36
  Q 455.41 572.34 464.01 567.35
  Q 470.06 563.84 476.00 562.75
  Q 485.77 560.96 491.06 569.00
  Q 492.87 571.76 493.31 572.20
  Q 494.74 573.67 496.56 574.44
  Q 504.23 577.65 512.12 575.97
  Q 514.90 575.37 520.36 572.46
  Q 530.23 567.18 539.00 566.00
  Q 546.62 564.97 550.06 571.69
  Q 551.25 574.01 552.01 575.81
  Q 553.28 578.84 554.09 579.82
  Q 556.65 582.93 560.58 583.10
  Q 563.59 583.23 567.14 581.34
  Q 570.75 579.41 573.81 576.31
  Q 579.43 570.62 587.00 568.45
  Q 590.88 567.34 596.08 567.46
  Q 600.69 567.56 605.26 568.25
  Q 607.63 568.61 609.65 567.30
  Q 611.89 565.85 611.14 563.70
  Q 610.61 562.17 608.88 561.26
  Q 607.13 560.35 604.75 560.00
  Q 599.28 559.20 596.26 559.43
  Q 586.75 560.19 577.87 563.72
  Q 570.10 566.81 562.85 570.60
  A 1.17 1.17 -30.3 0 1 561.32 570.20
  Q 551.90 555.69 534.24 558.17
  Q 522.42 559.84 511.69 564.95
  Q 509.03 566.22 507.47 566.23
  Q 505.30 566.25 503.00 565.25
  Q 498.22 563.18 495.10 559.75
  Q 492.41 556.80 492.38 556.77
  Q 488.39 553.11 483.33 551.52
  Q 479.17 550.21 473.57 550.54
  Q 468.33 550.86 463.81 552.31
  Q 454.52 555.31 444.00 560.52
  Q 440.28 562.36 438.10 562.50
  Q 434.48 562.73 431.81 560.69
  Q 422.39 553.50 417.10 551.00
  Q 397.53 541.77 378.73 552.26
  Q 371.25 556.43 365.64 562.89
  Q 361.29 567.90 361.91 573.67
  Q 362.21 576.47 364.64 577.89
  Z
  M 566.45 641.03
  Q 564.55 639.31 562.63 637.59
  A 0.60 0.59 46.2 0 0 561.86 637.57
  Q 505.31 684.66 431.54 690.75
  A 0.58 0.58 -2.1 0 0 431.00 691.33
  L 431.00 700.54
  A 0.53 0.53 -2.5 0 0 431.58 701.07
  Q 510.03 694.70 569.40 644.88
  A 0.54 0.54 -40.6 0 0 569.46 644.12
  Q 567.89 642.34 566.45 641.03
  Z
  M 264.45 648.92
  Q 321.24 694.10 392.84 700.71
  A 0.75 0.69 -87.1 0 0 393.60 699.97
  L 393.70 691.49
  A 1.17 1.06 -87.3 0 0 392.74 690.32
  Q 325.81 683.59 272.09 641.79
  A 0.88 0.83 -47.9 0 0 270.97 641.88
  L 264.43 648.19
  A 0.50 0.47 -48.2 0 0 264.45 648.92
  Z"
/>
<path fill="#ffffff" d="
  M 479.94 256.06
  Q 457.67 249.32 431.69 247.10
  A 0.58 0.55 1.8 0 1 431.15 246.56
  L 431.04 237.31
  A 0.47 0.45 1.7 0 1 431.55 236.85
  Q 505.94 242.53 564.46 289.01
  A 0.41 0.41 -48.0 0 1 564.49 289.63
  L 557.78 296.07
  A 0.82 0.81 -47.6 0 1 556.72 296.12
  Q 521.84 268.75 479.94 256.06
  Z"
/>
<path fill="#ffffff" d="
  M 262.90 293.57
  Q 262.11 292.89 261.55 291.99
  A 0.60 0.57 -35.4 0 1 261.70 291.24
  Q 318.47 244.60 392.89 237.16
  A 0.53 0.51 -3.6 0 1 393.47 237.66
  L 393.76 246.90
  A 0.56 0.55 -3.8 0 1 393.25 247.47
  Q 323.33 254.67 269.13 298.44
  A 0.64 0.63 43.7 0 1 268.35 298.45
  Q 266.46 296.97 264.79 295.24
  Q 264.60 295.03 262.90 293.57
  Z"
/>
<path fill="#ffffff" d="
  M 273.19 483.56
  Q 264.75 482.82 254.27 485.33
  Q 242.22 488.22 231.67 493.78
  A 0.73 0.73 73.8 0 1 230.60 493.19
  Q 228.55 468.32 231.41 444.74
  Q 235.96 407.15 254.98 375.03
  Q 260.06 366.46 266.25 358.51
  Q 291.45 326.15 327.56 309.06
  Q 386.14 281.35 450.25 291.50
  Q 485.57 297.09 516.42 315.06
  Q 525.27 320.21 533.07 326.13
  Q 566.71 351.63 584.00 390.00
  Q 593.63 411.36 597.75 436.50
  Q 603.40 470.94 598.01 508.69
  A 0.67 0.58 -85.9 0 1 597.44 509.26
  L 589.69 509.37
  A 1.46 0.87 55.0 0 1 588.82 508.98
  Q 583.87 504.59 577.75 504.00
  Q 549.07 501.25 524.15 515.88
  Q 519.94 518.35 517.81 518.33
  Q 514.15 518.30 511.19 514.81
  Q 496.31 497.29 473.00 500.52
  Q 457.34 502.70 442.19 509.94
  Q 438.12 511.88 432.74 512.43
  Q 425.08 513.23 420.69 508.56
  Q 414.16 501.63 412.81 500.44
  Q 402.27 491.10 388.98 489.31
  Q 380.43 488.16 369.17 490.80
  Q 355.73 493.96 343.94 500.69
  Q 340.13 502.86 337.05 504.37
  Q 333.13 506.30 329.64 506.55
  Q 320.41 507.21 313.56 501.19
  Q 295.77 485.54 273.19 483.56
  Z
  M 437.83 387.45
  Q 438.19 376.72 439.50 361.75
  Q 440.21 353.62 435.22 349.14
  Q 431.20 345.52 423.98 344.95
  Q 413.84 344.16 403.94 349.94
  Q 393.66 355.93 392.25 366.75
  Q 390.91 376.99 391.18 396.43
  A 0.90 0.86 74.1 0 1 390.77 397.20
  L 344.56 425.27
  A 2.64 2.63 76.3 0 0 343.30 427.35
  L 341.66 453.29
  A 1.55 1.51 -14.5 0 1 340.93 454.49
  L 307.85 475.04
  A 2.42 2.41 69.4 0 0 306.75 477.48
  Q 308.08 485.67 314.38 484.64
  Q 316.99 484.22 322.20 480.92
  Q 344.92 466.54 366.69 450.74
  Q 385.37 437.17 404.94 424.95
  Q 426.94 411.21 450.86 401.28
  Q 456.87 398.78 459.53 398.75
  Q 464.68 398.70 468.19 403.31
  Q 471.96 408.28 482.73 423.54
  Q 485.23 427.09 485.64 429.56
  Q 486.19 432.93 485.00 436.50
  Q 471.75 476.30 464.66 497.03
  A 0.40 0.35 -80.8 0 0 464.99 497.56
  L 469.88 497.26
  A 2.71 2.23 -73.9 0 0 471.83 495.92
  Q 474.45 491.34 477.50 486.25
  Q 490.19 465.04 496.59 441.16
  Q 497.68 437.11 497.81 431.56
  Q 497.90 427.81 496.72 424.65
  Q 495.94 422.54 493.08 418.83
  Q 484.12 407.21 475.24 395.52
  Q 471.52 390.64 466.00 391.25
  Q 460.13 391.90 452.70 395.76
  A 0.96 0.91 -43.2 0 1 451.81 395.76
  L 438.25 388.19
  A 0.81 0.81 15.5 0 1 437.83 387.45
  Z
  M 461.60 406.99
  Q 453.67 426.17 449.36 446.42
  Q 448.74 449.37 445.58 466.07
  Q 443.56 476.76 441.83 487.50
  A 0.54 0.44 -84.0 0 0 442.24 488.12
  L 445.57 488.17
  A 0.84 0.62 -78.4 0 0 446.22 487.59
  Q 454.06 463.61 459.25 441.50
  Q 463.02 425.41 464.44 407.57
  Q 464.51 406.62 464.36 405.95
  Q 463.81 403.57 462.42 405.45
  Q 462.01 406.00 461.60 406.99
  Z"
/>
<path fill="#ffffff" d="
  M 584.92 322.23
  L 591.78 315.68
  A 0.45 0.43 47.7 0 1 592.41 315.73
  Q 642.28 372.13 649.95 446.76
  A 0.49 0.47 86.7 0 1 649.49 447.30
  L 640.10 447.47
  A 0.60 0.57 86.2 0 1 639.52 446.94
  Q 631.51 375.99 584.91 322.80
  A 0.42 0.39 48.1 0 1 584.92 322.23
  Z"
/>
<path fill="#ffffff" d="
  M 238.57 322.20
  Q 240.06 323.58 240.64 323.94
  Q 242.51 325.07 241.14 326.38
  Q 239.91 327.57 239.87 327.63
  Q 195.14 381.69 188.81 452.04
  A 0.74 0.71 -87.0 0 1 188.09 452.72
  L 179.30 452.63
  A 1.08 1.02 -86.9 0 1 178.31 451.46
  Q 185.52 375.05 233.92 318.64
  A 0.55 0.49 -48.5 0 1 234.66 318.55
  L 238.57 322.20
  Z"
/>
<path fill="#131263" d="
  M 438.25 388.19
  L 451.81 395.76
  A 0.96 0.91 -43.2 0 0 452.70 395.76
  Q 460.13 391.90 466.00 391.25
  Q 471.52 390.64 475.24 395.52
  Q 484.12 407.21 493.08 418.83
  Q 495.94 422.54 496.72 424.65
  Q 497.90 427.81 497.81 431.56
  Q 497.68 437.11 496.59 441.16
  Q 490.19 465.04 477.50 486.25
  Q 474.45 491.34 471.83 495.92
  A 2.71 2.23 -73.9 0 1 469.88 497.26
  L 464.99 497.56
  A 0.40 0.35 -80.8 0 1 464.66 497.03
  Q 471.75 476.30 485.00 436.50
  Q 486.19 432.93 485.64 429.56
  Q 485.23 427.09 482.73 423.54
  Q 471.96 408.28 468.19 403.31
  Q 464.68 398.70 459.53 398.75
  Q 456.87 398.78 450.86 401.28
  Q 426.94 411.21 404.94 424.95
  Q 385.37 437.17 366.69 450.74
  Q 344.92 466.54 322.20 480.92
  Q 316.99 484.22 314.38 484.64
  Q 308.08 485.67 306.75 477.48
  A 2.42 2.41 69.4 0 1 307.85 475.04
  L 340.93 454.49
  A 1.55 1.51 -14.5 0 0 341.66 453.29
  L 343.30 427.35
  A 2.64 2.63 76.3 0 1 344.56 425.27
  L 390.77 397.20
  A 0.90 0.86 74.1 0 0 391.18 396.43
  Q 390.91 376.99 392.25 366.75
  Q 393.66 355.93 403.94 349.94
  Q 413.84 344.16 423.98 344.95
  Q 431.20 345.52 435.22 349.14
  Q 440.21 353.62 439.50 361.75
  Q 438.19 376.72 437.83 387.45
  A 0.81 0.81 15.5 0 0 438.25 388.19
  Z
  M 425.72 361.17
  Q 427.94 361.96 429.00 361.75
  Q 433.03 360.95 431.24 357.76
  A 2.83 2.83 -9.4 0 0 429.28 356.36
  Q 416.81 354.12 406.31 359.07
  Q 404.14 360.09 402.62 361.85
  Q 401.58 363.05 401.47 364.41
  Q 401.29 366.68 403.49 366.44
  Q 404.38 366.35 405.72 365.55
  Q 413.50 360.88 422.54 360.58
  Q 423.94 360.53 425.72 361.17
  Z
  M 423.94 381.81
  Q 427.31 382.59 429.82 384.61
  Q 430.46 385.12 430.50 384.30
  L 431.33 367.90
  Q 431.36 367.34 430.86 367.60
  Q 418.64 373.93 402.10 374.02
  A 1.33 1.30 0.4 0 0 400.77 375.30
  L 400.50 391.70
  Q 400.49 392.55 401.16 392.01
  Q 407.80 386.68 415.90 383.27
  Q 421.00 381.13 423.94 381.81
  Z
  M 443.25 399.66
  L 424.44 390.56
  Q 422.34 389.55 422.56 391.56
  L 424.36 408.07
  A 0.40 0.38 -15.3 0 0 424.91 408.37
  L 443.24 400.53
  Q 444.20 400.12 443.25 399.66
  Z
  M 415.32 392.19
  Q 413.07 391.09 410.86 392.29
  Q 406.63 394.61 403.17 397.97
  A 0.78 0.76 58.9 0 0 402.98 398.79
  L 409.14 415.98
  A 0.54 0.48 69.4 0 0 409.79 416.32
  L 415.70 414.01
  A 1.50 1.29 80.2 0 0 416.52 412.64
  L 416.19 393.58
  A 1.60 1.56 -77.8 0 0 415.32 392.19
  Z
  M 356.47 446.11
  L 403.87 420.11
  A 1.17 1.13 -25.0 0 0 404.41 418.70
  L 397.99 401.60
  A 0.46 0.46 -27.0 0 0 397.30 401.38
  L 356.22 429.28
  A 0.95 0.94 73.0 0 0 355.81 430.06
  L 356.01 445.85
  A 0.31 0.30 -14.7 0 0 356.47 446.11
  Z"
/>
<path fill="#201e7b" d="
  M 783.44 455.31
  Q 767.18 441.54 764.91 419.76
  Q 762.64 398.00 773.12 380.26
  Q 778.19 371.68 786.04 365.16
  Q 806.24 348.42 833.32 352.40
  Q 839.95 353.38 846.42 356.31
  Q 853.18 359.38 858.44 363.06
  Q 865.52 368.03 870.96 375.65
  Q 874.88 381.15 875.94 384.23
  Q 877.61 389.09 876.15 394.54
  Q 874.36 401.16 868.00 402.75
  Q 861.83 404.29 857.69 399.31
  Q 855.81 397.05 851.00 392.25
  Q 842.18 383.42 829.75 381.75
  Q 826.77 381.35 820.42 381.55
  Q 814.90 381.72 811.22 382.88
  Q 803.30 385.39 797.53 391.15
  Q 792.35 396.33 790.24 402.97
  Q 788.10 409.71 789.00 417.25
  Q 789.78 423.86 793.89 428.60
  Q 799.59 435.20 807.56 438.69
  Q 815.32 442.08 828.25 445.75
  Q 834.59 447.55 842.32 450.66
  Q 850.65 454.01 855.70 457.16
  Q 865.06 463.00 872.05 471.49
  Q 877.36 477.94 880.13 484.84
  Q 883.09 492.18 883.76 500.25
  Q 884.47 508.76 883.53 517.25
  Q 880.90 540.92 863.88 557.38
  Q 838.60 581.82 804.94 572.31
  Q 781.33 565.64 767.75 544.66
  Q 764.41 539.49 762.59 535.62
  Q 760.08 530.25 759.75 525.50
  Q 759.45 521.17 761.81 517.16
  Q 764.25 513.04 767.74 511.45
  Q 772.42 509.30 777.44 512.81
  Q 781.00 515.30 783.52 520.21
  Q 793.91 540.45 814.79 544.00
  Q 825.41 545.80 834.56 542.94
  Q 846.35 539.26 854.31 528.56
  Q 856.46 525.68 857.32 522.90
  Q 861.29 510.13 857.75 497.25
  Q 857.13 495.01 854.59 492.15
  Q 845.82 482.27 833.37 477.77
  Q 829.35 476.31 825.31 474.90
  Q 822.47 473.91 817.07 472.54
  Q 798.07 467.70 783.44 455.31
  Z"
/>
<path fill="#4f4e97" d="
  M 1108.31 519.94
  Q 1108.62 520.88 1108.94 519.94
  Q 1133.59 446.01 1157.94 371.98
  Q 1160.55 364.06 1162.25 360.00
  Q 1163.36 357.35 1165.44 355.20
  Q 1167.61 352.95 1170.15 352.15
  Q 1173.37 351.14 1176.51 352.35
  Q 1179.10 353.36 1181.28 356.05
  Q 1187.28 363.45 1183.95 373.48
  Q 1152.88 467.17 1121.51 560.76
  Q 1118.93 568.45 1116.89 570.70
  Q 1112.60 575.44 1105.06 573.69
  Q 1101.21 572.79 1099.27 569.41
  Q 1098.77 568.54 1096.92 563.01
  Q 1065.27 468.55 1033.66 374.07
  Q 1031.97 369.02 1032.55 363.90
  Q 1033.00 359.95 1035.12 357.06
  Q 1037.52 353.77 1041.06 352.31
  Q 1045.77 350.37 1050.37 353.66
  Q 1054.91 356.90 1056.38 362.15
  Q 1057.25 365.24 1057.27 365.29
  Q 1083.05 442.53 1108.31 519.94
  Z"
/>
<path fill="#8887b9" d="
  M 1395.00 383.21
  Q 1394.48 380.72 1393.13 382.56
  A 0.22 0.18 -48.9 0 1 1392.82 382.61
  Q 1392.74 382.51 1392.71 382.39
  A 0.61 0.40 86.0 0 0 1392.36 381.93
  Q 1389.07 381.22 1389.65 377.74
  A 1.37 1.34 34.5 0 0 1389.47 376.82
  Q 1388.08 374.53 1388.59 371.77
  Q 1388.88 370.16 1388.72 368.16
  Q 1388.62 366.88 1389.75 367.47
  Q 1391.64 368.43 1391.70 366.81
  A 1.44 0.95 34.8 0 0 1391.35 365.94
  Q 1390.10 364.50 1389.81 362.72
  Q 1389.63 361.58 1390.61 359.50
  Q 1391.68 357.21 1391.86 354.22
  A 0.42 0.41 -11.9 0 1 1392.10 353.86
  Q 1393.04 353.41 1391.75 353.49
  Q 1391.00 353.53 1390.25 353.46
  Q 1413.91 347.89 1435.06 359.45
  Q 1443.94 364.31 1450.40 372.12
  Q 1455.42 378.20 1459.25 385.03
  Q 1462.86 391.49 1465.44 399.32
  Q 1471.50 417.73 1471.50 438.75
  Q 1471.50 498.38 1471.50 558.00
  Q 1471.50 562.37 1469.71 566.11
  Q 1467.77 570.15 1464.27 571.95
  Q 1461.05 573.60 1457.34 573.06
  Q 1453.90 572.56 1451.35 570.16
  Q 1446.75 565.86 1446.75 558.25
  Q 1446.75 499.88 1446.75 441.50
  Q 1446.75 428.09 1444.25 418.50
  Q 1440.83 405.38 1434.62 396.86
  Q 1423.88 382.13 1406.00 381.50
  Q 1401.20 381.33 1395.00 383.21
  Z"
/>
<path fill="#353287" d="
  M 932.31 541.51
  A 0.99 0.99 0.0 0 0 933.30 542.50
  Q 968.62 542.50 1002.41 542.50
  Q 1008.95 542.50 1009.57 542.61
  Q 1013.33 543.30 1016.01 546.49
  Q 1023.13 555.00 1018.25 565.00
  Q 1015.46 570.72 1010.01 571.98
  Q 1008.82 572.25 999.97 572.25
  Q 960.60 572.25 921.23 572.25
  Q 917.39 572.25 915.01 571.04
  Q 907.50 567.23 907.50 558.00
  Q 907.50 462.87 907.50 367.75
  Q 907.50 364.73 908.82 361.36
  Q 910.36 357.45 911.90 355.72
  Q 914.75 352.50 920.25 352.50
  Q 964.38 352.50 1008.50 352.50
  Q 1012.59 352.50 1015.02 355.22
  Q 1024.41 365.74 1016.44 377.69
  Q 1013.34 382.34 1007.75 382.30
  Q 970.37 382.06 933.00 382.49
  A 0.52 0.51 -0.6 0 0 932.49 383.00
  L 932.26 445.61
  A 0.91 0.89 0.3 0 0 933.17 446.51
  Q 960.13 446.32 986.00 446.75
  Q 988.77 446.80 991.49 450.24
  Q 998.09 458.60 994.25 468.50
  Q 992.50 473.01 988.51 475.20
  Q 986.14 476.50 981.73 476.50
  Q 957.36 476.50 932.93 476.50
  A 0.68 0.68 90.0 0 0 932.25 477.18
  L 932.31 541.51
  Z"
/>
<path fill="#6665a4" d="
  M 1231.06 477.06
  L 1231.00 541.65
  A 0.85 0.85 -90.0 0 0 1231.85 542.50
  Q 1269.50 542.50 1306.50 542.49
  Q 1310.77 542.49 1313.78 545.47
  Q 1319.39 551.01 1318.69 558.99
  Q 1318.12 565.56 1312.94 569.94
  Q 1310.16 572.28 1306.75 572.28
  Q 1262.75 572.25 1217.43 572.25
  Q 1215.95 572.25 1214.62 571.59
  Q 1206.49 567.56 1206.47 558.00
  Q 1206.26 467.51 1206.25 377.01
  Q 1206.25 368.07 1206.31 367.50
  Q 1206.78 362.67 1208.99 358.21
  Q 1211.28 353.56 1215.71 352.63
  Q 1216.33 352.50 1223.81 352.50
  Q 1262.97 352.50 1302.13 352.50
  Q 1308.67 352.50 1308.86 352.53
  Q 1312.46 353.15 1314.83 356.43
  Q 1323.29 368.18 1314.06 379.06
  Q 1311.93 381.58 1308.71 382.13
  Q 1307.98 382.26 1302.78 382.23
  Q 1267.16 382.04 1231.55 382.56
  A 0.50 0.49 -90.0 0 0 1231.06 383.06
  L 1231.00 445.98
  A 0.52 0.52 0.0 0 0 1231.52 446.50
  Q 1256.50 446.50 1281.50 446.43
  Q 1284.23 446.42 1286.59 447.44
  Q 1288.80 448.40 1290.55 450.55
  Q 1293.77 454.50 1294.13 459.53
  Q 1294.45 463.94 1293.34 467.41
  Q 1292.12 471.20 1288.69 474.19
  Q 1285.97 476.55 1283.00 476.54
  Q 1257.28 476.45 1231.57 476.56
  A 0.51 0.50 -0.0 0 0 1231.06 477.06
  Z"
/>
<path fill="#7776af" d="
  M 1390.25 353.46
  Q 1391.00 353.53 1391.75 353.49
  Q 1393.04 353.41 1392.10 353.86
  A 0.42 0.41 -11.9 0 0 1391.86 354.22
  Q 1391.68 357.21 1390.61 359.50
  Q 1389.63 361.58 1389.81 362.72
  Q 1390.10 364.50 1391.35 365.94
  A 1.44 0.95 34.8 0 1 1391.70 366.81
  Q 1391.64 368.43 1389.75 367.47
  Q 1388.62 366.88 1388.72 368.16
  Q 1388.88 370.16 1388.59 371.77
  Q 1388.08 374.53 1389.47 376.82
  A 1.37 1.34 34.5 0 1 1389.65 377.74
  Q 1389.07 381.22 1392.36 381.93
  A 0.61 0.40 86.0 0 1 1392.71 382.39
  Q 1392.74 382.51 1392.82 382.61
  A 0.22 0.18 -48.9 0 0 1393.13 382.56
  Q 1394.48 380.72 1395.00 383.21
  Q 1386.59 385.93 1382.06 389.81
  Q 1369.31 400.75 1366.50 419.00
  Q 1366.09 421.67 1365.45 427.33
  Q 1365.00 431.38 1364.97 435.69
  Q 1364.45 511.48 1364.75 553.75
  Q 1364.79 559.98 1364.16 563.23
  Q 1362.49 571.68 1354.75 573.00
  Q 1346.76 574.36 1343.06 567.94
  Q 1341.19 564.69 1340.44 560.43
  Q 1340.00 557.92 1340.00 552.55
  Q 1340.00 495.28 1339.98 438.00
  Q 1339.97 426.44 1341.69 415.08
  Q 1343.29 404.46 1346.73 395.79
  Q 1352.99 380.03 1363.94 368.19
  Q 1374.14 357.15 1390.25 353.46
  Z"
/>
<path fill="#ffffff" d="
  M 422.54 360.58
  Q 413.50 360.88 405.72 365.55
  Q 404.38 366.35 403.49 366.44
  Q 401.29 366.68 401.47 364.41
  Q 401.58 363.05 402.62 361.85
  Q 404.14 360.09 406.31 359.07
  Q 416.81 354.12 429.28 356.36
  A 2.83 2.83 -9.4 0 1 431.24 357.76
  Q 433.03 360.95 429.00 361.75
  Q 427.94 361.96 425.72 361.17
  Q 423.94 360.53 422.54 360.58
  Z"
/>
<path fill="#ffffff" d="
  M 423.94 381.81
  Q 421.00 381.13 415.90 383.27
  Q 407.80 386.68 401.16 392.01
  Q 400.49 392.55 400.50 391.70
  L 400.77 375.30
  A 1.33 1.30 0.4 0 1 402.10 374.02
  Q 418.64 373.93 430.86 367.60
  Q 431.36 367.34 431.33 367.90
  L 430.50 384.30
  Q 430.46 385.12 429.82 384.61
  Q 427.31 382.59 423.94 381.81
  Z"
/>
<path fill="#ffffff" d="
  M 443.25 399.66
  Q 444.20 400.12 443.24 400.53
  L 424.91 408.37
  A 0.40 0.38 -15.3 0 1 424.36 408.07
  L 422.56 391.56
  Q 422.34 389.55 424.44 390.56
  L 443.25 399.66
  Z"
/>
<path fill="#ffffff" d="
  M 415.32 392.19
  A 1.60 1.56 -77.8 0 1 416.19 393.58
  L 416.52 412.64
  A 1.50 1.29 80.2 0 1 415.70 414.01
  L 409.79 416.32
  A 0.54 0.48 69.4 0 1 409.14 415.98
  L 402.98 398.79
  A 0.78 0.76 58.9 0 1 403.17 397.97
  Q 406.63 394.61 410.86 392.29
  Q 413.07 391.09 415.32 392.19
  Z"
/>
<path fill="#ffffff" d="
  M 356.47 446.11
  A 0.31 0.30 -14.7 0 1 356.01 445.85
  L 355.81 430.06
  A 0.95 0.94 73.0 0 1 356.22 429.28
  L 397.30 401.38
  A 0.46 0.46 -27.0 0 1 397.99 401.60
  L 404.41 418.70
  A 1.17 1.13 -25.0 0 1 403.87 420.11
  L 356.47 446.11
  Z
  M 397.2587 413.3365
  A 8.79 4.00 -31.2 0 0 387.6679 414.4685
  A 8.79 4.00 -31.2 0 0 382.2213 422.4435
  A 8.79 4.00 -31.2 0 0 391.8121 421.3115
  A 8.79 4.00 -31.2 0 0 397.2587 413.3365
  Z
  M 377.2244 424.6407
  A 8.86 3.99 -31.5 0 0 367.5852 425.8680
  A 8.86 3.99 -31.5 0 0 362.1156 433.8993
  A 8.86 3.99 -31.5 0 0 371.7548 432.6720
  A 8.86 3.99 -31.5 0 0 377.2244 424.6407
  Z"
/>
<path fill="#131263" d="
  M 462.42 405.45
  Q 463.81 403.57 464.36 405.95
  Q 464.51 406.62 464.44 407.57
  Q 463.02 425.41 459.25 441.50
  Q 454.06 463.61 446.22 487.59
  A 0.84 0.62 -78.4 0 1 445.57 488.17
  L 442.24 488.12
  A 0.54 0.44 -84.0 0 1 441.83 487.50
  Q 443.56 476.76 445.58 466.07
  Q 448.74 449.37 449.36 446.42
  Q 453.67 426.17 461.60 406.99
  Q 462.01 406.00 462.42 405.45
  Z"
/>
<ellipse fill="#131263" cx="0.00" cy="0.00" transform="translate(389.74,417.89) rotate(-31.2)" rx="8.79" ry="4.00"/>
<ellipse fill="#131263" cx="0.00" cy="0.00" transform="translate(369.67,429.27) rotate(-31.5)" rx="8.86" ry="3.99"/>
<path fill="#ffffff" d="
  M 596.26 617.59
  L 589.05 610.93
  A 0.55 0.54 -48.5 0 1 589.01 610.18
  Q 633.86 555.97 639.96 486.00
  A 0.61 0.60 88.9 0 1 640.49 485.44
  Q 645.25 484.93 650.01 485.44
  A 0.51 0.51 5.8 0 1 650.46 485.99
  Q 644.36 560.63 596.54 617.57
  A 0.20 0.19 -47.0 0 1 596.26 617.59
  Z"
/>
<path fill="#ffffff" d="
  M 243.78 615.02
  A 0.86 0.85 -42.5 0 1 243.72 616.20
  L 237.18 622.45
  A 0.45 0.44 -42.7 0 1 236.55 622.43
  Q 186.71 566.29 178.80 491.25
  A 0.51 0.50 83.7 0 1 179.24 490.69
  Q 184.00 490.18 188.76 490.69
  A 0.64 0.63 89.9 0 1 189.31 491.25
  Q 197.27 561.16 243.78 615.02
  Z"
/>
<path fill="#ffffff" d="
  M 287.69 521.81
  Q 285.17 521.38 281.84 521.91
  Q 279.35 522.31 276.26 523.47
  Q 267.81 526.65 260.35 531.82
  Q 254.26 536.04 248.11 540.19
  Q 248.04 540.23 244.12 543.08
  Q 237.21 548.11 228.87 548.91
  Q 222.39 549.54 218.49 547.11
  Q 212.97 543.67 214.56 535.56
  Q 215.77 529.40 220.62 523.87
  Q 234.84 507.65 254.96 502.21
  Q 264.81 499.55 274.74 500.32
  Q 293.32 501.77 308.81 513.20
  Q 313.18 516.43 317.41 519.84
  Q 323.72 524.92 330.50 523.75
  Q 334.79 523.01 341.76 519.32
  Q 352.00 513.89 364.00 509.75
  Q 373.04 506.63 382.00 505.97
  Q 399.85 504.65 411.81 517.06
  Q 411.84 517.10 414.46 520.14
  Q 420.86 527.57 430.56 529.44
  Q 433.95 530.09 437.22 528.50
  Q 449.73 522.45 463.22 519.14
  Q 473.30 516.66 483.49 517.33
  Q 492.11 517.90 498.11 520.84
  Q 505.20 524.33 509.94 530.81
  Q 512.52 534.35 513.91 535.89
  A 0.91 0.90 63.4 0 0 514.74 536.17
  Q 517.70 535.62 520.32 534.08
  Q 539.61 522.79 561.78 519.74
  Q 573.59 518.12 583.94 521.56
  Q 588.26 523.00 588.17 527.11
  Q 588.12 529.12 586.83 530.41
  Q 585.49 531.76 583.43 532.15
  Q 579.85 532.84 576.24 532.28
  Q 568.04 531.01 559.77 531.74
  Q 543.17 533.21 531.67 545.17
  Q 527.13 549.90 521.38 552.60
  Q 514.70 555.74 509.28 554.26
  Q 502.53 552.41 499.75 544.50
  Q 498.56 541.10 496.48 537.54
  Q 494.19 533.61 491.63 531.70
  Q 487.43 528.57 482.13 528.84
  Q 479.78 528.96 472.79 530.82
  Q 460.42 534.10 451.06 539.56
  Q 446.91 541.98 445.83 542.37
  Q 431.28 547.50 417.06 542.19
  Q 411.68 540.18 408.66 535.03
  Q 400.79 521.61 385.56 524.31
  Q 379.83 525.33 373.62 528.19
  Q 372.55 528.68 362.78 534.42
  Q 349.92 541.99 334.75 545.00
  Q 326.99 546.54 319.77 545.61
  Q 311.63 544.56 305.39 539.69
  Q 303.16 537.95 301.10 534.48
  Q 299.36 531.54 297.50 528.68
  Q 293.70 522.84 287.69 521.81
  Z"
/>
<path fill="#ffffff" d="
  M 364.64 577.89
  Q 362.21 576.47 361.91 573.67
  Q 361.29 567.90 365.64 562.89
  Q 371.25 556.43 378.73 552.26
  Q 397.53 541.77 417.10 551.00
  Q 422.39 553.50 431.81 560.69
  Q 434.48 562.73 438.10 562.50
  Q 440.28 562.36 444.00 560.52
  Q 454.52 555.31 463.81 552.31
  Q 468.33 550.86 473.57 550.54
  Q 479.17 550.21 483.33 551.52
  Q 488.39 553.11 492.38 556.77
  Q 492.41 556.80 495.10 559.75
  Q 498.22 563.18 503.00 565.25
  Q 505.30 566.25 507.47 566.23
  Q 509.03 566.22 511.69 564.95
  Q 522.42 559.84 534.24 558.17
  Q 551.90 555.69 561.32 570.20
  A 1.17 1.17 -30.3 0 0 562.85 570.60
  Q 570.10 566.81 577.87 563.72
  Q 586.75 560.19 596.26 559.43
  Q 599.28 559.20 604.75 560.00
  Q 607.13 560.35 608.88 561.26
  Q 610.61 562.17 611.14 563.70
  Q 611.89 565.85 609.65 567.30
  Q 607.63 568.61 605.26 568.25
  Q 600.69 567.56 596.08 567.46
  Q 590.88 567.34 587.00 568.45
  Q 579.43 570.62 573.81 576.31
  Q 570.75 579.41 567.14 581.34
  Q 563.59 583.23 560.58 583.10
  Q 556.65 582.93 554.09 579.82
  Q 553.28 578.84 552.01 575.81
  Q 551.25 574.01 550.06 571.69
  Q 546.62 564.97 539.00 566.00
  Q 530.23 567.18 520.36 572.46
  Q 514.90 575.37 512.12 575.97
  Q 504.23 577.65 496.56 574.44
  Q 494.74 573.67 493.31 572.20
  Q 492.87 571.76 491.06 569.00
  Q 485.77 560.96 476.00 562.75
  Q 470.06 563.84 464.01 567.35
  Q 455.41 572.34 455.36 572.36
  Q 445.76 576.86 436.50 577.25
  Q 427.81 577.62 421.81 572.44
  Q 420.57 571.36 419.54 569.44
  Q 417.91 566.38 417.76 566.17
  Q 411.97 557.79 401.60 562.94
  Q 391.09 568.16 381.65 575.13
  Q 376.35 579.03 369.75 579.27
  Q 367.15 579.36 364.64 577.89
  Z"
/>
<path fill="#ffffff" d="
  M 566.45 641.03
  Q 567.89 642.34 569.46 644.12
  A 0.54 0.54 -40.7 0 1 569.40 644.88
  Q 510.03 694.70 431.58 701.07
  A 0.53 0.53 -2.5 0 1 431.00 700.54
  L 431.00 691.33
  A 0.58 0.58 -2.1 0 1 431.54 690.75
  Q 505.31 684.66 561.86 637.57
  A 0.60 0.59 46.2 0 1 562.63 637.59
  Q 564.55 639.31 566.45 641.03
  Z"
/>
<path fill="#ffffff" d="
  M 264.45 648.92
  A 0.50 0.47 -48.2 0 1 264.43 648.19
  L 270.97 641.88
  A 0.88 0.83 -47.9 0 1 272.09 641.79
  Q 325.81 683.59 392.74 690.32
  A 1.17 1.06 -87.3 0 1 393.70 691.49
  L 393.60 699.97
  A 0.75 0.69 -87.1 0 1 392.84 700.71
  Q 321.24 694.10 264.45 648.92
  Z"
/>
</svg>
